<?xml version="1.0" standalone="no"?>
<!DOCTYPE svg PUBLIC "-//W3C//DTD SVG 20010904//EN"
 "http://www.w3.org/TR/2001/REC-SVG-20010904/DTD/svg10.dtd">
<svg version="1.0" xmlns="http://www.w3.org/2000/svg"
 width="512.000000pt" height="512.000000pt" viewBox="0 0 512.000000 512.000000"
 preserveAspectRatio="xMidYMid meet">

<g transform="translate(0.000000,512.000000) scale(0.100000,-0.100000)"
fill="#000000" stroke="none">
<path d="M517 4339 c-143 -34 -274 -157 -319 -301 -17 -57 -18 -126 -18 -1479
0 -1411 0 -1420 21 -1481 50 -150 161 -254 314 -294 28 -8 96 -14 153 -14
l102 0 0 1395 c0 767 2 1395 5 1395 3 0 404 -308 892 -685 489 -376 890 -685
893 -685 3 0 405 308 893 685 488 377 890 685 892 685 3 0 5 -628 5 -1395 l0
-1395 103 0 c56 0 125 6 152 14 153 40 264 144 314 294 21 61 21 70 21 1484
l0 1423 -24 67 c-51 144 -161 244 -311 284 -27 8 -96 14 -153 14 l-103 0 -886
-702 c-488 -386 -894 -702 -903 -702 -8 0 -414 316 -902 702 l-887 702 -108
-1 c-59 -1 -125 -5 -146 -10z"/>
</g>
</svg>
