<?xml version="1.0" standalone="no"?>
<!DOCTYPE svg PUBLIC "-//W3C//DTD SVG 20010904//EN"
 "http://www.w3.org/TR/2001/REC-SVG-20010904/DTD/svg10.dtd">
<svg version="1.0" xmlns="http://www.w3.org/2000/svg"
 width="1024.000000pt" height="1024.000000pt" viewBox="0 0 1024.000000 1024.000000"
 preserveAspectRatio="xMidYMid meet">

<g transform="translate(0.000000,1024.000000) scale(0.100000,-0.100000)"
fill="#000000" stroke="none">
<path d="M5636 10224 c-79 -19 -174 -67 -234 -118 -45 -38 -3931 -4193 -4074
-4355 -274 -311 -455 -711 -525 -1161 -24 -158 -24 -499 1 -657 80 -512 300
-975 637 -1338 69 -74 955 -946 1849 -1820 102 -99 223 -210 270 -246 362
-281 759 -447 1220 -510 123 -17 488 -18 605 -1 465 66 835 217 1200 490 73
54 269 243 716 691 591 590 618 619 653 691 192 395 -89 850 -524 850 -96 0
-179 -19 -270 -63 -58 -28 -117 -82 -575 -537 -280 -278 -554 -547 -607 -598
-201 -191 -437 -307 -701 -346 -339 -51 -691 37 -959 239 -76 57 -1538 1478
-1928 1873 -243 246 -368 477 -416 767 -23 140 -14 335 20 468 30 118 105 277
173 369 51 69 1769 1913 1826 1959 160 131 374 228 617 280 89 20 135 23 305
23 170 0 216 -3 305 -23 204 -44 393 -124 520 -220 36 -27 405 -324 820 -660
482 -390 779 -624 821 -646 114 -60 262 -81 391 -54 79 16 206 81 269 138 206
185 255 499 113 738 -20 33 -64 88 -98 121 -52 51 -1299 1064 -1570 1276 -230
180 -520 325 -821 410 -125 36 -260 66 -295 66 -11 0 -20 4 -20 8 0 4 147 165
327 357 588 630 577 617 617 698 97 198 83 420 -40 600 -137 200 -386 297
-618 241z"/>
<path d="M4392 4756 c-159 -39 -315 -163 -386 -307 -84 -172 -85 -350 -3 -524
72 -151 202 -259 373 -312 56 -17 155 -18 2324 -18 2171 0 2267 1 2325 18 164
51 295 159 365 301 90 181 91 359 4 535 -48 98 -152 203 -250 254 -139 72 47
67 -2449 66 -1791 -1 -2261 -3 -2303 -13z"/>
</g>
</svg>
