<?xml version="1.0" standalone="no"?>
<!DOCTYPE svg PUBLIC "-//W3C//DTD SVG 20010904//EN"
 "http://www.w3.org/TR/2001/REC-SVG-20010904/DTD/svg10.dtd">
<svg version="1.0" xmlns="http://www.w3.org/2000/svg"
 width="720.000000pt" height="720.000000pt" viewBox="0 0 720.000000 720.000000"
 preserveAspectRatio="xMidYMid meet">

<g transform="translate(0.000000,720.000000) scale(0.100000,-0.100000)"
fill="#000000" stroke="none">
<path d="M0 3600 l0 -3600 3600 0 3600 0 0 3600 0 3600 -3600 0 -3600 0 0
-3600z m4232 1025 c90 -19 165 -53 222 -100 24 -19 48 -35 54 -35 28 0 289 92
340 120 30 16 60 30 64 30 18 0 -48 -102 -102 -158 -50 -52 -132 -119 -185
-151 -38 -23 64 -2 174 35 56 19 105 34 107 32 9 -9 -95 -149 -151 -203 l-62
-60 -1 -139 c-1 -153 -17 -255 -62 -400 -131 -427 -435 -761 -845 -929 -421
-173 -1000 -153 -1412 50 -51 24 -93 49 -93 54 0 5 58 9 128 9 209 0 448 53
611 135 121 60 127 71 49 79 -193 22 -361 89 -472 188 -48 43 -105 123 -94
133 2 2 48 8 103 14 55 6 122 19 150 28 l49 16 -73 24 c-140 45 -267 157 -315
279 -24 60 -47 194 -33 194 3 0 34 -13 69 -28 34 -16 97 -39 138 -51 120 -36
118 -36 85 -11 -16 13 -67 61 -113 107 -85 88 -145 189 -172 293 -22 82 7 253
55 327 15 22 17 20 167 -131 247 -248 468 -393 705 -461 70 -20 212 -45 260
-45 10 0 13 35 13 150 0 177 9 229 60 335 105 218 330 323 582 270z"/>
</g>
</svg>
